<?xml version="1.0" encoding="utf-8"?>
<!-- Generator: Adobe Illustrator 27.1.0, SVG Export Plug-In . SVG Version: 6.00 Build 0)  -->
<svg version="1.1" id="Layer_1" xmlns="http://www.w3.org/2000/svg" xmlns:xlink="http://www.w3.org/1999/xlink" x="0px" y="0px"
	 viewBox="0 0 38.95 37.2" style="enable-background:new 0 0 38.95 37.2;" xml:space="preserve">
<style type="text/css">
	.st0{display:none;}
	.st1{display:inline;}
	.st2{fill:#1D1D1B;}
	.st3{fill:none;stroke:#1D1D1B;stroke-width:0.5;stroke-miterlimit:9.9992;}
	.st4{fill:none;stroke:#1D1D1B;stroke-width:0.5;stroke-miterlimit:10;}
	.st5{fill:none;stroke:#1D1D1B;stroke-width:0.5;stroke-miterlimit:9.9996;}
	.st6{fill:#458F98;}
</style>
<g id="Capa_1">
</g>
<g id="Capa_2">
	<g class="st0">
		<g class="st1">
			<g>
				<g>
					<g>
						<path class="st2" d="M1234.33-460.86v0.51c0,2.68,2.18,4.87,4.87,4.87h0.54v11.34c0,2.13-1.74,3.87-3.87,3.87h-12.93
							c-2.13,0-3.87-1.74-3.87-3.87v-12.85c0-2.13,1.74-3.87,3.87-3.87H1234.33 M1229.4-445.33c2.89,0,5.23-2.35,5.23-5.23
							s-2.35-5.23-5.23-5.23s-5.23,2.35-5.23,5.23S1226.51-445.33,1229.4-445.33 M1234.83-461.36h-11.9c-2.4,0-4.37,1.97-4.37,4.37
							v12.85c0,2.4,1.97,4.37,4.37,4.37h12.93c2.4,0,4.37-1.97,4.37-4.37v-11.84h-1.04c-2.4,0-4.37-1.97-4.37-4.37v-1.01H1234.83z
							 M1229.4-445.83c-2.61,0-4.73-2.12-4.73-4.73c0-2.61,2.12-4.73,4.73-4.73s4.73,2.12,4.73,4.73
							C1234.13-447.95,1232.01-445.83,1229.4-445.83L1229.4-445.83z"/>
					</g>
					
						<ellipse transform="matrix(0.2298 -0.9732 0.9732 0.2298 1385.3574 849.6381)" class="st3" cx="1229.49" cy="-450.47" rx="3.42" ry="3.42"/>
					<path class="st4" d="M1244.66-459.41c-1.47-1.47-3.88-1.48-5.35-0.01l-0.64,0.63l0.62,0.62c1.47,1.47,3.88,1.48,5.35,0.01
						l0.64-0.63L1244.66-459.41z"/>
					<path class="st4" d="M1237.68-459.79l0.62-0.61c1.48-1.46,1.5-3.87,0.04-5.35l-0.63-0.64l-0.62,0.61
						c-1.48,1.46-1.5,3.87-0.04,5.35L1237.68-459.79z"/>
				</g>
			</g>
		</g>
		<g class="st1">
			<path d="M1220.47-436.98h0.27l1.13,2.86l1.12-2.86h0.26l-1.26,3.13h-0.26L1220.47-436.98z"/>
			<path d="M1228.73-436.66c0.21,0.22,0.32,0.52,0.32,0.9v1.91h-0.25v-1.86c0-0.32-0.09-0.57-0.26-0.75
				c-0.18-0.18-0.42-0.27-0.74-0.27c-0.37,0.01-0.66,0.13-0.87,0.37s-0.32,0.57-0.32,0.98v1.53h-0.25v-1.86
				c0-0.32-0.09-0.57-0.27-0.75s-0.42-0.27-0.73-0.27c-0.37,0.01-0.66,0.13-0.88,0.38c-0.21,0.24-0.32,0.57-0.32,0.97v1.53h-0.25
				v-3.13h0.25v0.82c0.1-0.27,0.26-0.47,0.47-0.61s0.48-0.21,0.79-0.22c0.31,0,0.57,0.08,0.77,0.24c0.2,0.16,0.33,0.38,0.38,0.67
				c0.1-0.29,0.25-0.51,0.47-0.67c0.22-0.15,0.49-0.23,0.81-0.24C1228.23-436.99,1228.52-436.88,1228.73-436.66z"/>
			<path d="M1232.21-433.85l-0.01-0.62c-0.13,0.21-0.3,0.37-0.51,0.47s-0.46,0.15-0.74,0.15c-0.2,0-0.38-0.04-0.54-0.12
				s-0.28-0.19-0.36-0.33c-0.09-0.14-0.13-0.29-0.13-0.47c0-0.26,0.1-0.46,0.31-0.62c0.21-0.15,0.49-0.22,0.85-0.22h1.11v-0.31
				c0-0.27-0.08-0.48-0.24-0.62c-0.16-0.15-0.39-0.22-0.7-0.22c-0.19,0-0.37,0.04-0.53,0.11s-0.34,0.17-0.52,0.3l-0.12-0.19
				c0.2-0.15,0.4-0.26,0.59-0.33c0.19-0.07,0.39-0.11,0.62-0.11c0.36,0,0.65,0.09,0.84,0.28c0.2,0.19,0.3,0.45,0.3,0.77l0.01,2.08
				H1232.21z M1231.75-434.27c0.21-0.13,0.36-0.33,0.45-0.6v-0.51h-1.09c-0.31,0-0.54,0.05-0.71,0.16c-0.16,0.1-0.24,0.26-0.24,0.46
				c0,0.21,0.08,0.38,0.23,0.5c0.15,0.13,0.35,0.19,0.6,0.19C1231.29-434.08,1231.54-434.14,1231.75-434.27z"/>
			<path d="M1234.3-436.77c0.2-0.13,0.44-0.21,0.72-0.21v0.26c-0.34,0-0.61,0.11-0.82,0.32s-0.32,0.5-0.35,0.87v1.69h-0.25v-3.13
				h0.25v0.79C1233.95-436.45,1234.1-436.64,1234.3-436.77z"/>
			<path d="M1238-433.85l-1.23-1.73l-0.79,0.82v0.92h-0.25v-4.45h0.25v3.17l1.85-1.85h0.31l-1.18,1.21l1.34,1.91H1238z"/>
		</g>
	</g>
	<g class="st0">
		<g class="st1">
			<g>
				<g>
					<g>
						<path class="st2" d="M799,928.62v0.51c0,2.68,2.18,4.87,4.87,4.87h0.54v11.34c0,2.13-1.74,3.87-3.87,3.87H787.6
							c-2.13,0-3.87-1.74-3.87-3.87v-12.85c0-2.13,1.74-3.87,3.87-3.87L799,928.62 M794.07,944.15c2.89,0,5.23-2.35,5.23-5.23
							c0-2.89-2.35-5.23-5.23-5.23s-5.23,2.35-5.23,5.23C788.83,941.8,791.18,944.15,794.07,944.15 M799.5,928.12h-11.9
							c-2.4,0-4.37,1.97-4.37,4.37v12.85c0,2.4,1.97,4.37,4.37,4.37h12.93c2.4,0,4.37-1.97,4.37-4.37V933.5h-1.04
							c-2.4,0-4.37-1.97-4.37-4.37v-1.01H799.5z M794.07,943.65c-2.61,0-4.73-2.12-4.73-4.73s2.12-4.73,4.73-4.73
							s4.73,2.12,4.73,4.73S796.68,943.65,794.07,943.65L794.07,943.65z"/>
					</g>
					<ellipse class="st5" cx="794.06" cy="939" rx="3.42" ry="3.42"/>
					<path class="st4" d="M809.33,930.07c-1.47-1.47-3.88-1.48-5.35-0.01l-0.64,0.63l0.62,0.62c1.47,1.47,3.88,1.48,5.35,0.01
						l0.64-0.63L809.33,930.07z"/>
					<path class="st4" d="M802.34,929.68l0.62-0.61c1.48-1.46,1.5-3.87,0.04-5.35l-0.63-0.64l-0.62,0.61
						c-1.48,1.46-1.5,3.87-0.04,5.35L802.34,929.68z"/>
				</g>
			</g>
		</g>
		<g class="st1">
			<path d="M785.14,952.5h0.27l1.13,2.86l1.12-2.86h0.26l-1.26,3.13h-0.26L785.14,952.5z"/>
			<path d="M793.4,952.81c0.21,0.22,0.32,0.52,0.32,0.9v1.91h-0.25v-1.86c0-0.32-0.09-0.57-0.26-0.75
				c-0.18-0.18-0.42-0.27-0.74-0.27c-0.37,0.01-0.66,0.13-0.87,0.37s-0.32,0.57-0.32,0.98v1.53h-0.25v-1.86
				c0-0.32-0.09-0.57-0.27-0.75s-0.42-0.27-0.73-0.27c-0.37,0.01-0.66,0.13-0.88,0.38c-0.21,0.24-0.32,0.57-0.32,0.97v1.53h-0.25
				v-3.13h0.25v0.82c0.1-0.27,0.26-0.47,0.47-0.61s0.48-0.21,0.79-0.22c0.31,0,0.57,0.08,0.77,0.24s0.33,0.38,0.38,0.67
				c0.1-0.29,0.25-0.51,0.47-0.67c0.22-0.15,0.49-0.23,0.81-0.24C792.9,952.49,793.19,952.6,793.4,952.81z"/>
			<path d="M796.87,955.62l-0.01-0.62c-0.13,0.21-0.3,0.37-0.51,0.47s-0.46,0.15-0.74,0.15c-0.2,0-0.38-0.04-0.54-0.12
				s-0.28-0.19-0.36-0.33c-0.09-0.14-0.13-0.29-0.13-0.47c0-0.26,0.1-0.46,0.31-0.62c0.21-0.15,0.49-0.22,0.85-0.22h1.11v-0.31
				c0-0.27-0.08-0.48-0.24-0.62c-0.16-0.15-0.39-0.22-0.7-0.22c-0.19,0-0.37,0.04-0.53,0.11s-0.34,0.17-0.52,0.3l-0.12-0.19
				c0.2-0.15,0.4-0.26,0.59-0.33s0.39-0.11,0.62-0.11c0.36,0,0.65,0.09,0.84,0.28c0.2,0.19,0.3,0.45,0.3,0.77l0.01,2.08
				L796.87,955.62L796.87,955.62z M796.42,955.2c0.21-0.13,0.36-0.33,0.45-0.6v-0.51h-1.09c-0.31,0-0.54,0.05-0.71,0.16
				c-0.16,0.1-0.24,0.26-0.24,0.46c0,0.21,0.08,0.38,0.23,0.5c0.15,0.13,0.35,0.19,0.6,0.19
				C795.95,955.4,796.21,955.33,796.42,955.2z"/>
			<path d="M798.96,952.7c0.2-0.13,0.44-0.21,0.72-0.21v0.26c-0.34,0-0.61,0.11-0.82,0.32s-0.32,0.5-0.35,0.87v1.69h-0.25v-3.13
				h0.25v0.79C798.62,953.03,798.77,952.84,798.96,952.7z"/>
			<path d="M802.67,955.62l-1.23-1.73l-0.79,0.82v0.92h-0.25v-4.45h0.25v3.17l1.85-1.85h0.31l-1.18,1.21l1.34,1.91H802.67z"/>
		</g>
	</g>
	<g class="st0">
		<g class="st1">
			<g>
				<g>
					<g>
						<path class="st2" d="M799,464.62v0.51c0,2.68,2.18,4.87,4.87,4.87h0.54v11.34c0,2.13-1.74,3.87-3.87,3.87H787.6
							c-2.13,0-3.87-1.74-3.87-3.87v-12.85c0-2.13,1.74-3.87,3.87-3.87H799 M794.07,480.15c2.89,0,5.23-2.35,5.23-5.23
							s-2.35-5.23-5.23-5.23s-5.23,2.35-5.23,5.23S791.18,480.15,794.07,480.15 M799.5,464.12h-11.9c-2.4,0-4.37,1.97-4.37,4.37
							v12.85c0,2.4,1.97,4.37,4.37,4.37h12.93c2.4,0,4.37-1.97,4.37-4.37V469.5h-1.04c-2.4,0-4.37-1.97-4.37-4.37v-1.01H799.5z
							 M794.07,479.65c-2.61,0-4.73-2.12-4.73-4.73s2.12-4.73,4.73-4.73s4.73,2.12,4.73,4.73S796.68,479.65,794.07,479.65
							L794.07,479.65z"/>
					</g>
					
						<ellipse transform="matrix(0.2298 -0.9732 0.9732 0.2298 149.299 1138.6566)" class="st3" cx="794.07" cy="475" rx="3.42" ry="3.42"/>
					<path class="st4" d="M809.33,466.07c-1.47-1.47-3.88-1.48-5.35-0.01l-0.64,0.63l0.62,0.62c1.47,1.47,3.88,1.48,5.35,0.01
						l0.64-0.63L809.33,466.07z"/>
					<path class="st4" d="M802.34,465.68l0.62-0.61c1.48-1.46,1.5-3.87,0.04-5.35l-0.63-0.64l-0.62,0.61
						c-1.48,1.46-1.5,3.87-0.04,5.35L802.34,465.68z"/>
				</g>
			</g>
		</g>
		<g class="st1">
			<path d="M785.14,488.5h0.27l1.13,2.86l1.12-2.86h0.26l-1.26,3.13h-0.26L785.14,488.5z"/>
			<path d="M793.4,488.81c0.21,0.22,0.32,0.52,0.32,0.9v1.91h-0.25v-1.86c0-0.32-0.09-0.57-0.26-0.75
				c-0.18-0.18-0.42-0.27-0.74-0.27c-0.37,0.01-0.66,0.13-0.87,0.37s-0.32,0.57-0.32,0.98v1.53h-0.25v-1.86
				c0-0.32-0.09-0.57-0.27-0.75s-0.42-0.27-0.73-0.27c-0.37,0.01-0.66,0.13-0.88,0.38c-0.21,0.24-0.32,0.57-0.32,0.97v1.53h-0.25
				v-3.13h0.25v0.82c0.1-0.27,0.26-0.47,0.47-0.61s0.48-0.21,0.79-0.22c0.31,0,0.57,0.08,0.77,0.24s0.33,0.38,0.38,0.67
				c0.1-0.29,0.25-0.51,0.47-0.67c0.22-0.15,0.49-0.23,0.81-0.24C792.9,488.49,793.19,488.6,793.4,488.81z"/>
			<path d="M796.87,491.62l-0.01-0.62c-0.13,0.21-0.3,0.37-0.51,0.47s-0.46,0.15-0.74,0.15c-0.2,0-0.38-0.04-0.54-0.12
				s-0.28-0.19-0.36-0.33c-0.09-0.14-0.13-0.29-0.13-0.47c0-0.26,0.1-0.46,0.31-0.62c0.21-0.15,0.49-0.22,0.85-0.22h1.11v-0.31
				c0-0.27-0.08-0.48-0.24-0.62c-0.16-0.15-0.39-0.22-0.7-0.22c-0.19,0-0.37,0.04-0.53,0.11s-0.34,0.17-0.52,0.3l-0.12-0.19
				c0.2-0.15,0.4-0.26,0.59-0.33c0.19-0.07,0.39-0.11,0.62-0.11c0.36,0,0.65,0.09,0.84,0.28c0.2,0.19,0.3,0.45,0.3,0.77l0.01,2.08
				H796.87z M796.42,491.2c0.21-0.13,0.36-0.33,0.45-0.6v-0.51h-1.09c-0.31,0-0.54,0.05-0.71,0.16c-0.16,0.1-0.24,0.26-0.24,0.46
				c0,0.21,0.08,0.38,0.23,0.5c0.15,0.13,0.35,0.19,0.6,0.19C795.95,491.4,796.21,491.33,796.42,491.2z"/>
			<path d="M798.96,488.7c0.2-0.13,0.44-0.21,0.72-0.21v0.26c-0.34,0-0.61,0.11-0.82,0.32s-0.32,0.5-0.35,0.87v1.69h-0.25v-3.13
				h0.25v0.79C798.62,489.03,798.77,488.84,798.96,488.7z"/>
			<path d="M802.67,491.62l-1.23-1.73l-0.79,0.82v0.92h-0.25v-4.45h0.25v3.17l1.85-1.85h0.31l-1.18,1.21l1.34,1.91H802.67z"/>
		</g>
	</g>
	<g class="st0">
		<g class="st1">
			<g>
				<g>
					<g>
						<path class="st2" d="M799,7.14v0.51c0,2.68,2.18,4.87,4.87,4.87h0.54v11.34c0,2.13-1.74,3.87-3.87,3.87H787.6
							c-2.13,0-3.87-1.74-3.87-3.87V11.01c0-2.13,1.74-3.87,3.87-3.87L799,7.14 M794.07,22.67c2.89,0,5.23-2.35,5.23-5.23
							s-2.35-5.23-5.23-5.23s-5.23,2.35-5.23,5.23S791.18,22.67,794.07,22.67 M799.5,6.64h-11.9c-2.4,0-4.37,1.97-4.37,4.37v12.85
							c0,2.4,1.97,4.37,4.37,4.37h12.93c2.4,0,4.37-1.97,4.37-4.37V12.02h-1.04c-2.4,0-4.37-1.97-4.37-4.37V6.64H799.5z
							 M794.07,22.17c-2.61,0-4.73-2.12-4.73-4.73s2.12-4.73,4.73-4.73s4.73,2.12,4.73,4.73S796.68,22.17,794.07,22.17L794.07,22.17
							z"/>
					</g>
					
						<ellipse transform="matrix(0.2298 -0.9732 0.9732 0.2298 594.5789 786.3324)" class="st3" cx="794.11" cy="17.5" rx="3.42" ry="3.42"/>
					<path class="st4" d="M809.33,8.59c-1.47-1.47-3.88-1.48-5.35-0.01l-0.64,0.63l0.62,0.62c1.47,1.47,3.88,1.48,5.35,0.01
						l0.64-0.63L809.33,8.59z"/>
					<path class="st4" d="M802.34,8.21l0.62-0.61c1.48-1.46,1.5-3.87,0.04-5.35l-0.63-0.64l-0.62,0.61
						c-1.48,1.46-1.5,3.87-0.04,5.35L802.34,8.21z"/>
				</g>
			</g>
		</g>
		<g class="st1">
			<path d="M785.14,31.02h0.27l1.13,2.86l1.12-2.86h0.26l-1.26,3.13h-0.26L785.14,31.02z"/>
			<path d="M793.4,31.34c0.21,0.22,0.32,0.52,0.32,0.9v1.91h-0.25v-1.86c0-0.32-0.09-0.57-0.26-0.75c-0.18-0.18-0.42-0.27-0.74-0.27
				c-0.37,0.01-0.66,0.13-0.87,0.37s-0.32,0.57-0.32,0.98v1.53h-0.25v-1.86c0-0.32-0.09-0.57-0.27-0.75s-0.42-0.27-0.73-0.27
				c-0.37,0.01-0.66,0.13-0.88,0.38c-0.21,0.24-0.32,0.57-0.32,0.97v1.53h-0.25v-3.13h0.25v0.82c0.1-0.27,0.26-0.47,0.47-0.61
				s0.48-0.21,0.79-0.22c0.31,0,0.57,0.08,0.77,0.24s0.33,0.38,0.38,0.67c0.1-0.29,0.25-0.51,0.47-0.67
				c0.22-0.15,0.49-0.23,0.81-0.24C792.9,31.01,793.19,31.12,793.4,31.34z"/>
			<path d="M796.87,34.15l-0.01-0.62c-0.13,0.21-0.3,0.37-0.51,0.47c-0.21,0.1-0.46,0.15-0.74,0.15c-0.2,0-0.38-0.04-0.54-0.12
				s-0.28-0.19-0.36-0.33c-0.09-0.14-0.13-0.29-0.13-0.47c0-0.26,0.1-0.46,0.31-0.62c0.21-0.15,0.49-0.22,0.85-0.22h1.11v-0.31
				c0-0.27-0.08-0.48-0.24-0.62c-0.16-0.15-0.39-0.22-0.7-0.22c-0.19,0-0.37,0.04-0.53,0.11s-0.34,0.17-0.52,0.3l-0.12-0.19
				c0.2-0.15,0.4-0.26,0.59-0.33s0.39-0.11,0.62-0.11c0.36,0,0.65,0.09,0.84,0.28c0.2,0.19,0.3,0.45,0.3,0.77l0.01,2.08H796.87z
				 M796.42,33.73c0.21-0.13,0.36-0.33,0.45-0.6v-0.51h-1.09c-0.31,0-0.54,0.05-0.71,0.16c-0.16,0.1-0.24,0.26-0.24,0.46
				c0,0.21,0.08,0.38,0.23,0.5c0.15,0.13,0.35,0.19,0.6,0.19C795.95,33.92,796.21,33.86,796.42,33.73z"/>
			<path d="M798.96,31.23c0.2-0.13,0.44-0.21,0.72-0.21v0.26c-0.34,0-0.61,0.11-0.82,0.32s-0.32,0.5-0.35,0.87v1.69h-0.25v-3.13
				h0.25v0.79C798.62,31.55,798.77,31.36,798.96,31.23z"/>
			<path d="M802.67,34.15l-1.23-1.73l-0.79,0.82v0.92h-0.25v-4.45h0.25v3.17l1.85-1.85h0.31l-1.18,1.21l1.34,1.91
				C802.97,34.15,802.67,34.15,802.67,34.15z"/>
		</g>
	</g>
	<g class="st0">
		<g class="st1">
			<g>
				<g>
					<g>
						<path class="st2" d="M799-460.86v0.51c0,2.68,2.18,4.87,4.87,4.87h0.54v11.34c0,2.13-1.74,3.87-3.87,3.87H787.6
							c-2.13,0-3.87-1.74-3.87-3.87v-12.85c0-2.13,1.74-3.87,3.87-3.87H799 M794.07-445.33c2.89,0,5.23-2.35,5.23-5.23
							s-2.35-5.23-5.23-5.23s-5.23,2.35-5.23,5.23S791.18-445.33,794.07-445.33 M799.5-461.36h-11.9c-2.4,0-4.37,1.97-4.37,4.37
							v12.85c0,2.4,1.97,4.37,4.37,4.37h12.93c2.4,0,4.37-1.97,4.37-4.37v-11.84h-1.04c-2.4,0-4.37-1.97-4.37-4.37v-1.01H799.5z
							 M794.07-445.83c-2.61,0-4.73-2.12-4.73-4.73c0-2.61,2.12-4.73,4.73-4.73s4.73,2.12,4.73,4.73
							C798.8-447.95,796.68-445.83,794.07-445.83L794.07-445.83z"/>
					</g>
					
						<ellipse transform="matrix(0.2298 -0.9732 0.9732 0.2298 1050.0953 425.9005)" class="st3" cx="794.14" cy="-450.51" rx="3.42" ry="3.42"/>
					<path class="st4" d="M809.33-459.41c-1.47-1.47-3.88-1.48-5.35-0.01l-0.64,0.63l0.62,0.62c1.47,1.47,3.88,1.48,5.35,0.01
						l0.64-0.63L809.33-459.41z"/>
					<path class="st4" d="M802.34-459.79l0.62-0.61c1.48-1.46,1.5-3.87,0.04-5.35l-0.63-0.64l-0.62,0.61
						c-1.48,1.46-1.5,3.87-0.04,5.35L802.34-459.79z"/>
				</g>
			</g>
		</g>
		<g class="st1">
			<path d="M785.14-436.98h0.27l1.13,2.86l1.12-2.86h0.26l-1.26,3.13h-0.26L785.14-436.98z"/>
			<path d="M793.4-436.66c0.21,0.22,0.32,0.52,0.32,0.9v1.91h-0.25v-1.86c0-0.32-0.09-0.57-0.26-0.75
				c-0.18-0.18-0.42-0.27-0.74-0.27c-0.37,0.01-0.66,0.13-0.87,0.37s-0.32,0.57-0.32,0.98v1.53h-0.25v-1.86
				c0-0.32-0.09-0.57-0.27-0.75s-0.42-0.27-0.73-0.27c-0.37,0.01-0.66,0.13-0.88,0.38c-0.21,0.24-0.32,0.57-0.32,0.97v1.53h-0.25
				v-3.13h0.25v0.82c0.1-0.27,0.26-0.47,0.47-0.61s0.48-0.21,0.79-0.22c0.31,0,0.57,0.08,0.77,0.24s0.33,0.38,0.38,0.67
				c0.1-0.29,0.25-0.51,0.47-0.67c0.22-0.15,0.49-0.23,0.81-0.24C792.9-436.99,793.19-436.88,793.4-436.66z"/>
			<path d="M796.87-433.85l-0.01-0.62c-0.13,0.21-0.3,0.37-0.51,0.47s-0.46,0.15-0.74,0.15c-0.2,0-0.38-0.04-0.54-0.12
				s-0.28-0.19-0.36-0.33c-0.09-0.14-0.13-0.29-0.13-0.47c0-0.26,0.1-0.46,0.31-0.62c0.21-0.15,0.49-0.22,0.85-0.22h1.11v-0.31
				c0-0.27-0.08-0.48-0.24-0.62c-0.16-0.15-0.39-0.22-0.7-0.22c-0.19,0-0.37,0.04-0.53,0.11s-0.34,0.17-0.52,0.3l-0.12-0.19
				c0.2-0.15,0.4-0.26,0.59-0.33c0.19-0.07,0.39-0.11,0.62-0.11c0.36,0,0.65,0.09,0.84,0.28c0.2,0.19,0.3,0.45,0.3,0.77l0.01,2.08
				H796.87z M796.42-434.27c0.21-0.13,0.36-0.33,0.45-0.6v-0.51h-1.09c-0.31,0-0.54,0.05-0.71,0.16c-0.16,0.1-0.24,0.26-0.24,0.46
				c0,0.21,0.08,0.38,0.23,0.5c0.15,0.13,0.35,0.19,0.6,0.19C795.95-434.08,796.21-434.14,796.42-434.27z"/>
			<path d="M798.96-436.77c0.2-0.13,0.44-0.21,0.72-0.21v0.26c-0.34,0-0.61,0.11-0.82,0.32s-0.32,0.5-0.35,0.87v1.69h-0.25v-3.13
				h0.25v0.79C798.62-436.45,798.77-436.64,798.96-436.77z"/>
			<path d="M802.67-433.85l-1.23-1.73l-0.79,0.82v0.92h-0.25v-4.45h0.25v3.17l1.85-1.85h0.31l-1.18,1.21l1.34,1.91H802.67z"/>
		</g>
	</g>
</g>
<g>
	<path class="st6" d="M24.34,7.65V6.64l0-0.15H12.3c-2.49,0-4.52,2.03-4.52,4.52v12.85c0,2.49,2.03,4.52,4.52,4.52h12.93
		c2.49,0,4.52-2.03,4.52-4.52V11.87h-1.19C26.23,11.87,24.34,9.98,24.34,7.65z M28.96,12.67v11.19c0,2.05-1.67,3.72-3.72,3.72H12.3
		c-2.05,0-3.72-1.67-3.72-3.72V11.01c0-2.05,1.67-3.72,3.72-3.72h11.25v0.36c0,2.77,2.25,5.02,5.02,5.02H28.96z"/>
	<path class="st6" d="M18.77,12.06c-2.97,0-5.38,2.41-5.38,5.38c-0.01,1.43,0.55,2.78,1.56,3.79c1.02,1.02,2.37,1.59,3.82,1.59
		c2.97,0,5.38-2.41,5.38-5.38S21.74,12.06,18.77,12.06z M18.77,22.02c-2.53,0-4.58-2.05-4.58-4.58s2.05-4.58,4.58-4.58
		s4.58,2.05,4.58,4.58S21.3,22.02,18.77,22.02z"/>
	<path class="st6" d="M18.77,13.62c-2.11,0-3.82,1.71-3.82,3.82s1.71,3.82,3.82,3.82s3.82-1.71,3.82-3.82S20.88,13.62,18.77,13.62z
		 M18.77,20.46c-1.67,0-3.02-1.35-3.02-3.02s1.35-3.02,3.02-3.02s3.02,1.35,3.02,3.02C21.79,19.11,20.44,20.46,18.77,20.46z"/>
	<path class="st6" d="M34.32,8.3c-0.79-0.79-1.84-1.22-2.97-1.22c-1.12,0-2.17,0.43-2.96,1.21l-0.93,0.93l0.9,0.9
		c0.79,0.79,1.84,1.22,2.97,1.22c1.12,0,2.17-0.43,2.97-1.21l0.92-0.92L34.32,8.3z M33.72,9.55c-1.33,1.32-3.48,1.31-4.79-0.01
		L28.6,9.21l0.35-0.35c0.63-0.64,1.47-0.99,2.39-0.99c0.92,0,1.77,0.35,2.39,0.99l0.33,0.33L33.72,9.55z"/>
	<path class="st6" d="M27.04,8.77l0.91-0.9c0.79-0.77,1.24-1.82,1.25-2.95c0-1.11-0.42-2.17-1.2-2.96l-0.91-0.93l-0.91,0.9
		c-0.79,0.77-1.24,1.82-1.25,2.95c0,1.12,0.42,2.18,1.2,2.97L27.04,8.77z M26.74,2.51l0.33-0.33l0.34,0.35
		c0.63,0.63,0.98,1.48,0.97,2.39s-0.37,1.76-1.01,2.39l-0.33,0.33L26.7,7.28c-0.63-0.63-0.98-1.48-0.97-2.39
		C25.74,3.98,26.1,3.14,26.74,2.51z"/>
	<polygon class="st6" points="11.24,33.47 10.21,30.87 9.62,30.87 11,34.3 11.46,34.3 12.84,30.87 12.26,30.87 	"/>
	<path class="st6" d="M17.22,30.86c-0.35,0.01-0.65,0.1-0.89,0.27c-0.14,0.1-0.26,0.23-0.36,0.39c-0.08-0.15-0.18-0.28-0.31-0.38
		c-0.23-0.18-0.52-0.27-0.87-0.27l0,0c-0.35,0.01-0.64,0.09-0.87,0.25c-0.09,0.06-0.17,0.13-0.24,0.2v-0.44h-0.55v3.43h0.55v-1.68
		c0-0.36,0.1-0.66,0.28-0.87c0.19-0.21,0.43-0.32,0.77-0.33c0.27,0,0.47,0.07,0.62,0.23c0.15,0.15,0.23,0.36,0.23,0.64v2.01h0.55
		v-1.68c0-0.37,0.1-0.67,0.28-0.88s0.43-0.31,0.76-0.32c0.28,0,0.48,0.07,0.63,0.22s0.22,0.37,0.22,0.65v2.01h0.55v-2.06
		c0-0.42-0.12-0.75-0.36-1C17.97,30.99,17.64,30.86,17.22,30.86z"/>
	<path class="st6" d="M21.6,31.19c-0.22-0.21-0.53-0.32-0.95-0.32c-0.24,0-0.46,0.04-0.67,0.12c-0.21,0.08-0.42,0.2-0.63,0.35
		l-0.11,0.08l0.28,0.44l0.13-0.09c0.16-0.11,0.33-0.21,0.49-0.28c0.15-0.06,0.31-0.1,0.47-0.1c0.27,0,0.47,0.06,0.6,0.18
		c0.12,0.11,0.19,0.28,0.19,0.51v0.16h-0.96c-0.4,0-0.7,0.08-0.94,0.25c-0.25,0.19-0.37,0.43-0.37,0.74c0,0.21,0.05,0.39,0.15,0.54
		c0.1,0.17,0.24,0.3,0.42,0.39s0.38,0.14,0.61,0.14c0.3,0,0.57-0.06,0.8-0.17c0.11-0.05,0.21-0.12,0.3-0.2l0.01,0.37h0.53
		l-0.01-2.23C21.94,31.71,21.82,31.41,21.6,31.19z M21.41,33.11c-0.08,0.23-0.2,0.39-0.38,0.5l0,0c-0.16,0.11-0.39,0.17-0.68,0.17
		c-0.22,0-0.38-0.05-0.51-0.16c-0.12-0.09-0.17-0.22-0.17-0.38c0-0.15,0.06-0.26,0.17-0.33c0.14-0.09,0.35-0.14,0.63-0.14h0.94
		V33.11z"/>
	<path class="st6" d="M23.58,31.1c-0.08,0.05-0.15,0.11-0.22,0.18v-0.41h-0.55v3.43h0.55v-1.83c0.03-0.34,0.13-0.6,0.31-0.78
		c0.18-0.19,0.42-0.28,0.71-0.28h0.15v-0.56h-0.15C24.09,30.87,23.82,30.95,23.58,31.1z"/>
	<polygon class="st6" points="27.87,30.88 27.14,30.88 25.5,32.52 25.5,29.56 24.95,29.56 24.95,34.31 25.5,34.31 25.5,33.3 
		26.12,32.65 27.29,34.3 27.96,34.3 26.52,32.26 	"/>
</g>
<g id="Capa_4">
</g>
<g id="Capa_5">
</g>
</svg>
